<?xml version="1.0" standalone="no"?>
<!DOCTYPE svg PUBLIC "-//W3C//DTD SVG 20010904//EN"
 "http://www.w3.org/TR/2001/REC-SVG-20010904/DTD/svg10.dtd">
<svg version="1.0" xmlns="http://www.w3.org/2000/svg"
 width="151.000000pt" height="151.000000pt" viewBox="0 0 151.000000 151.000000"
 preserveAspectRatio="xMidYMid meet">
<metadata>
Created by potrace 1.14, written by Peter Selinger 2001-2017
</metadata>
<g transform="translate(0.000000,151.000000) scale(0.100000,-0.100000)"
fill="#000000" stroke="none">
<path d="M603 1375 c-144 -32 -304 -141 -380 -257 -15 -24 -31 -44 -35 -46 -5
-2 -8 -8 -8 -13 0 -5 -11 -32 -25 -60 -13 -29 -22 -56 -19 -60 3 -5 1 -9 -5
-9 -5 0 -8 -9 -6 -20 2 -11 1 -20 -3 -20 -10 0 -14 -42 -15 -135 0 -87 3 -107
23 -175 8 -25 14 -47 14 -50 3 -16 51 -106 60 -112 6 -4 8 -8 4 -8 -12 0 29
-48 103 -120 156 -154 396 -212 610 -147 170 52 322 179 391 327 37 79 48 108
50 139 1 18 5 34 9 37 12 7 3 246 -10 254 -7 4 -12 9 -10 11 6 10 -13 79 -22
79 -6 0 -7 5 -3 11 3 6 3 14 -2 18 -5 3 -20 29 -34 58 -14 28 -28 49 -32 46
-5 -2 -8 1 -8 8 0 6 -30 42 -68 78 -82 81 -192 141 -303 167 -53 13 -217 12
-276 -1z m207 -412 c140 -137 173 -181 165 -221 -6 -36 -18 -50 -127 -160
-171 -173 -174 -175 -200 -169 l-24 6 0 171 c1 93 -3 170 -7 170 -5 0 -5 5 -1
12 11 17 11 228 0 228 -5 0 -4 6 2 13 6 7 9 22 8 32 -4 27 11 55 30 55 8 0 78
-61 154 -137z"/>
</g>
</svg>
